<svg xmlns="http://www.w3.org/2000/svg" viewBox="0 0 93 86"><path d="M 85 61 Z" fill="#00bfa5" stroke="#000000" stroke-width="2"/><path d="M 86 59 Z" fill="#00bfa5" stroke="#000000" stroke-width="2"/><path d="M 88 55 Z" fill="#00bfa5" stroke="#000000" stroke-width="2"/><path d="M 27 5 L 26 6 L 25 6 L 23 8 L 22 8 L 22 9 L 20 11 L 20 12 L 18 14 L 18 15 L 15 18 L 15 19 L 13 21 L 13 22 L 11 24 L 11 25 L 10 26 L 10 27 L 6 31 L 6 32 L 4 34 L 4 37 L 3 38 L 3 41 L 4 42 L 4 45 L 6 47 L 6 48 L 8 50 L 8 51 L 11 54 L 11 55 L 13 57 L 13 58 L 15 60 L 15 61 L 17 63 L 17 64 L 19 66 L 19 67 L 22 70 L 22 71 L 24 73 L 24 74 L 26 76 L 26 77 L 27 78 L 28 78 L 30 80 L 60 80 L 61 79 L 62 79 L 66 75 L 66 74 L 68 72 L 68 71 L 70 69 L 70 68 L 72 66 L 72 65 L 73 64 L 73 63 L 74 62 L 75 62 L 75 61 L 77 59 L 77 58 L 78 57 L 78 56 L 80 54 L 80 53 L 82 51 L 82 50 L 84 48 L 84 47 L 86 45 L 86 43 L 87 42 L 87 37 L 86 36 L 86 34 L 84 32 L 84 31 L 82 29 L 82 28 L 79 25 L 79 24 L 77 22 L 77 21 L 75 19 L 75 18 L 73 16 L 73 15 L 71 13 L 71 12 L 68 9 L 68 8 L 67 8 L 65 6 L 64 6 L 63 5 Z" fill="#00bfa5" stroke="#000000" stroke-width="2"/></svg>