<?xml version="1.0" encoding="UTF-8"?>
<svg version="1.1" xmlns="http://www.w3.org/2000/svg" width="150" height="91">
<path d="M0 0 C49.5 0 99 0 150 0 C150 30.03 150 60.06 150 91 C100.5 91 51 91 0 91 C0 60.97 0 30.94 0 0 Z " fill="#F4F7F8" transform="translate(0,0)"/>
<path d="M0 0 C1.28293945 -0.05607422 1.28293945 -0.05607422 2.59179688 -0.11328125 C6.92923455 -0.17375676 9.00016556 -0.15422858 12.5234375 2.55859375 C13.59464844 3.95271484 13.59464844 3.95271484 14.6875 5.375 C15.42613281 6.26058594 16.16476563 7.14617188 16.92578125 8.05859375 C17.95251953 9.42177734 17.95251953 9.42177734 19 10.8125 C19.69738281 11.71871094 20.39476562 12.62492187 21.11328125 13.55859375 C23.05865154 17.0390205 23.41576566 18.43855752 22.6875 22.375 C20.98697448 25.64443375 18.93333462 28.61603554 16.8125 31.625 C15.97912109 32.84703125 15.97912109 32.84703125 15.12890625 34.09375 C11.0890377 39.9734623 11.0890377 39.9734623 8.6875 42.375 C-5.37452394 44.33679461 -5.37452394 44.33679461 -10.74609375 40.75 C-12.56893812 38.39251075 -13.92132324 36.00911336 -15.3125 33.375 C-15.96992188 32.45074219 -16.62734375 31.52648437 -17.3046875 30.57421875 C-22.31383481 23.52827807 -22.31383481 23.52827807 -22.30859375 19 C-21.08985935 14.56476266 -19.12953209 11.62377434 -16.375 8 C-15.91931641 7.37222656 -15.46363281 6.74445312 -14.99414062 6.09765625 C-10.36203984 -0.18246868 -7.36961927 0.12054396 0 0 Z " fill="#05BEB9" transform="translate(31.3125,7.625)"/>
<path d="M0 0 C2.31 0 4.62 0 7 0 C8.32 5.28 9.64 10.56 11 16 C12.68273619 12.63452762 13.64491818 9.9107659 14.5625 6.3125 C15.89323843 1.10676157 15.89323843 1.10676157 17 0 C19.33297433 -0.04092937 21.66705225 -0.04241723 24 0 C24.41572266 1.71509766 24.41572266 1.71509766 24.83984375 3.46484375 C25.20554378 4.95577465 25.57143929 6.44665761 25.9375 7.9375 C26.11990234 8.69224609 26.30230469 9.44699219 26.49023438 10.22460938 C27.13839179 13.91279821 27.13839179 13.91279821 29 17 C29.27714844 15.85660156 29.55429688 14.71320312 29.83984375 13.53515625 C30.20554378 12.04422535 30.57143929 10.55334239 30.9375 9.0625 C31.11990234 8.30775391 31.30230469 7.55300781 31.49023438 6.77539062 C32.88671875 1.11328125 32.88671875 1.11328125 34 0 C36.33297433 -0.04092937 38.66705225 -0.04241723 41 0 C38.54201885 10.06726323 35.92124175 20.05534724 33 30 C30.36 30 27.72 30 25 30 C24.58427734 28.42798828 24.58427734 28.42798828 24.16015625 26.82421875 C23.79432048 25.44529933 23.42843233 24.0663938 23.0625 22.6875 C22.88009766 21.99720703 22.69769531 21.30691406 22.50976562 20.59570312 C21.7406739 17.70112156 20.94738424 14.84215271 20 12 C18.35 17.94 16.7 23.88 15 30 C12.36 30 9.72 30 7 30 C6.20716877 26.68777765 5.41595304 23.37517132 4.625 20.0625 C4.40328125 19.13630859 4.1815625 18.21011719 3.953125 17.25585938 C2.58327764 11.51458733 1.26539026 5.76521262 0 0 Z " fill="#122023" transform="translate(91,8)"/>
<path d="M0 0 C3 1.1875 3 1.1875 5 3 C5.8125 5.6875 5.8125 5.6875 6 8 C3.125 8.125 3.125 8.125 0 8 C-0.66 7.34 -1.32 6.68 -2 6 C-4.58354218 5.83312552 -4.58354218 5.83312552 -7 6 C-7.33 7.65 -7.66 9.3 -8 11 C-7.34 10.67 -6.68 10.34 -6 10 C-1.34591099 9.5863032 1.25239476 10.18929607 5 13 C7.48455397 16.72683096 7.27275131 18.47503916 6.65625 22.76953125 C5.80601253 25.65932646 4.35751457 27.46740555 1.87890625 29.1875 C-1.74078441 30.75277164 -5.16841612 30.76348904 -9 30 C-13.12272862 27.63162399 -14.55998947 25.43950846 -16 21 C-17.28078873 9.10057911 -17.28078873 9.10057911 -14.1875 4.3125 C-9.70352113 -0.42770624 -6.19999946 -0.69614029 0 0 Z " fill="#0F1E20" transform="translate(82,8)"/>
<path d="M0 0 C1.28293945 -0.05607422 1.28293945 -0.05607422 2.59179688 -0.11328125 C6.92923455 -0.17375676 9.00016556 -0.15422858 12.5234375 2.55859375 C13.59464844 3.95271484 13.59464844 3.95271484 14.6875 5.375 C15.42613281 6.26058594 16.16476563 7.14617188 16.92578125 8.05859375 C17.95251953 9.42177734 17.95251953 9.42177734 19 10.8125 C19.69738281 11.71871094 20.39476562 12.62492187 21.11328125 13.55859375 C23.05865154 17.0390205 23.41576566 18.43855752 22.6875 22.375 C20.98697448 25.64443375 18.93333462 28.61603554 16.8125 31.625 C15.97912109 32.84703125 15.97912109 32.84703125 15.12890625 34.09375 C11.0890377 39.9734623 11.0890377 39.9734623 8.6875 42.375 C-5.37452394 44.33679461 -5.37452394 44.33679461 -10.74609375 40.75 C-12.56893812 38.39251075 -13.92132324 36.00911336 -15.3125 33.375 C-15.96992188 32.45074219 -16.62734375 31.52648437 -17.3046875 30.57421875 C-22.31383481 23.52827807 -22.31383481 23.52827807 -22.30859375 19 C-21.08985935 14.56476266 -19.12953209 11.62377434 -16.375 8 C-15.91931641 7.37222656 -15.46363281 6.74445312 -14.99414062 6.09765625 C-10.36203984 -0.18246868 -7.36961927 0.12054396 0 0 Z M-13.8125 7.5625 C-14.69769652 9.13864158 -15.53852762 10.74136544 -16.3125 12.375 C-16.9725 13.24125 -17.6325 14.1075 -18.3125 15 C-19.78993222 18.50890151 -19.14877536 20.66776144 -18.3125 24.375 C-16.90179041 27.37488245 -15.16516995 30.06864057 -13.3125 32.8125 C-12.86777344 33.54404297 -12.42304688 34.27558594 -11.96484375 35.02929688 C-9.98014843 37.98975466 -8.57818172 40.010896 -5.0703125 41.02001953 C-2.6058649 41.16495733 -0.68878646 41.04131493 1.6875 40.375 C4.13319628 38.34869419 4.13319628 38.34869419 5.6875 35.375 C6.40550781 34.3334375 7.12351562 33.291875 7.86328125 32.21875 C8.56839844 31.1153125 9.27351563 30.011875 10 28.875 C10.71800781 27.7715625 11.43601562 26.668125 12.17578125 25.53125 C13.92378128 22.54112185 13.92378128 22.54112185 13.51171875 19.61328125 C12.370498 16.51413676 11.45245916 15.24134743 8.6875 13.375 C5.65754777 13.0458845 2.72213531 13.14156651 -0.3125 13.375 C-0.3125 12.715 -0.3125 12.055 -0.3125 11.375 C8.17158047 11.40794789 8.17158047 11.40794789 11.5 13.53125 C12.875 15 12.875 15 14.6875 18.375 C14.46249302 23.92737822 12.64179613 27.77427991 9.625 32.3125 C9.24794922 32.90095703 8.87089844 33.48941406 8.48242188 34.09570312 C7.56171123 35.52921463 6.62613006 36.9531572 5.6875 38.375 C7.1725 38.87 7.1725 38.87 8.6875 39.375 C9.21859375 38.57835937 9.7496875 37.78171875 10.296875 36.9609375 C16.6875 27.375 16.6875 27.375 19.015625 24.2890625 C20.88652805 21.57571011 20.88652805 21.57571011 20.71875 18.890625 C19.36033044 15.57690455 17.39218244 12.90986203 15.1875 10.125 C14.77113281 9.58359375 14.35476562 9.0421875 13.92578125 8.484375 C11.54173036 4.8513045 11.54173036 4.8513045 7.94091797 3.11865234 C-4.19240308 1.67874801 -4.19240308 1.67874801 -13.8125 7.5625 Z " fill="#0F373A" transform="translate(31.3125,7.625)"/>
<path d="M0 0 C4.6613779 -0.32521241 7.24064446 0.18048334 11 3 C13.48455397 6.72683096 13.27275131 8.47503916 12.65625 12.76953125 C11.80770061 15.653589 10.34902837 17.45782614 7.8984375 19.203125 C4.35576501 20.69017271 0.75887342 20.37588734 -3 20 C-3 19.67 -3 19.34 -3 19 C0.96 18.505 0.96 18.505 5 18 C5 17.01 5 16.02 5 15 C4.05125 15.04125 3.1025 15.0825 2.125 15.125 C-1 15 -1 15 -3 13 C-3.4375 10.125 -3.4375 10.125 -3 7 C-0.5 4.625 -0.5 4.625 2 3 C1.34 2.01 0.68 1.02 0 0 Z " fill="#182527" transform="translate(76,18)"/>
<path d="M0 0 C4.39970265 4.0114936 8.42485876 8.58833101 11 14 C10.26340035 18.63824792 7.62376722 22.26646906 5.1875 26.1875 C4.74857422 26.92419922 4.30964844 27.66089844 3.85742188 28.41992188 C3.42365234 29.12052734 2.98988281 29.82113281 2.54296875 30.54296875 C2.15133545 31.18258545 1.75970215 31.82220215 1.35620117 32.48120117 C-0.31485017 34.35259818 -1.55990145 34.62367927 -4 35 C-3.06385433 33.27009975 -2.12602042 31.54111304 -1.1875 29.8125 C-0.66542969 28.84957031 -0.14335938 27.88664062 0.39453125 26.89453125 C1.43714818 25.01477664 2.53804442 23.16578434 3.703125 21.359375 C5.60535558 17.89869045 5.01917023 15.73695752 4 12 C2.69138543 9.44014926 2.69138543 9.44014926 0 8 C-3.32760958 7.38358253 -6.62099549 7.12896964 -10 7 C-6.55549263 4.70366176 -4.06187717 4.45983515 0 4 C0 2.68 0 1.36 0 0 Z " fill="#14B6B2" transform="translate(41,12)"/>
<path d="M0 0 C4.95 0 9.9 0 15 0 C15.33 0.99 15.66 1.98 16 3 C14.35 2.67 12.7 2.34 11 2 C11 2.66 11 3.32 11 4 C12.65 4.33 14.3 4.66 16 5 C15.67 6.65 15.34 8.3 15 10 C12.36 9.67 9.72 9.34 7 9 C7 9.66 7 10.32 7 11 C4.69 11 2.38 11 0 11 C0 7.37 0 3.74 0 0 Z " fill="#DFE4E5" transform="translate(125,44)"/>
<path d="M0 0 C0.78552246 0.01047363 1.57104492 0.02094727 2.38037109 0.03173828 C3.23115234 0.03818359 4.08193359 0.04462891 4.95849609 0.05126953 C6.29267578 0.07640625 6.29267578 0.07640625 7.65380859 0.10205078 C8.99958984 0.11558594 8.99958984 0.11558594 10.37255859 0.12939453 C12.59157445 0.15300108 14.81005937 0.18592768 17.02880859 0.22705078 C16.69880859 1.87705078 16.36880859 3.52705078 16.02880859 5.22705078 C13.65380859 5.85205078 13.65380859 5.85205078 11.02880859 6.22705078 C10.36880859 5.56705078 9.70880859 4.90705078 9.02880859 4.22705078 C7.22011394 4.53125624 7.22011394 4.53125624 5.02880859 5.22705078 C2.69786326 5.57669258 0.36476098 5.91259565 -1.97119141 6.22705078 C-2.63119141 4.90705078 -3.29119141 3.58705078 -3.97119141 2.22705078 C-1.97119141 0.22705078 -1.97119141 0.22705078 0 0 Z " fill="#747979" transform="translate(29.97119140625,74.77294921875)"/>
<path d="M0 0 C8.38182006 -1.04358629 8.38182006 -1.04358629 12.03515625 1.3125 C13.84961434 3.23419557 15.03499003 4.52415994 16 7 C15.82975058 12.55275021 13.94992387 16.40585718 10.9375 20.9375 C10.56044922 21.52595703 10.18339844 22.11441406 9.79492188 22.72070312 C8.87421123 24.15421463 7.93863006 25.5781572 7 27 C6.34 26.67 5.68 26.34 5 26 C6.69398798 21.37252065 9.13227595 17.58160045 11.85546875 13.5 C13.25684007 10.43898415 13.13995011 9.13615234 12 6 C10.37313093 3.73239481 9.47059555 3.10647326 6.73828125 2.48828125 C5.93777344 2.43027344 5.13726562 2.37226563 4.3125 2.3125 C3.10013672 2.21388672 3.10013672 2.21388672 1.86328125 2.11328125 C1.24839844 2.07589844 0.63351563 2.03851562 0 2 C0 1.34 0 0.68 0 0 Z " fill="#002B2B" transform="translate(31,19)"/>
<path d="M0 0 C2.5 0.25 2.5 0.25 4.5 2.25 C4.75 5.25 4.75 5.25 4.5 8.25 C2.5 10.25 2.5 10.25 0 10.5 C-2.5 10.25 -2.5 10.25 -4.5 8.25 C-4.75 5.25 -4.75 5.25 -4.5 2.25 C-2.5 0.25 -2.5 0.25 0 0 Z " fill="#EBEFF0" transform="translate(77.5,22.75)"/>
<path d="M0 0 C0.66 0.33 1.32 0.66 2 1 C1.61555513 6.95420713 -1.07443632 10.61617601 -4.4375 15.3125 C-4.94087891 16.04017578 -5.44425781 16.76785156 -5.96289062 17.51757812 C-9.70774632 22.85387316 -9.70774632 22.85387316 -12 24 C-12.99 23.34 -13.98 22.68 -15 22 C-14.01 21.67 -13.02 21.34 -12 21 C-10.22826147 18.65783798 -10.22826147 18.65783798 -8.5625 15.8125 C-4.71520637 9.53319624 -4.71520637 9.53319624 -2.625 6.5625 C-1.1753437 4.27650352 -0.40773067 2.65024933 0 0 Z " fill="#0D3033" transform="translate(52,25)"/>
<path d="M0 0 C0.85078125 0.00322266 1.7015625 0.00644531 2.578125 0.00976562 C3.46757812 0.01814453 4.35703125 0.02652344 5.2734375 0.03515625 C6.170625 0.03966797 7.0678125 0.04417969 7.9921875 0.04882812 C10.21100398 0.06063034 12.42968768 0.0770947 14.6484375 0.09765625 C14.6484375 0.75765625 14.6484375 1.41765625 14.6484375 2.09765625 C12.80378906 2.08412109 12.80378906 2.08412109 10.921875 2.0703125 C2.12945313 1.843356 2.12945313 1.843356 -5.8828125 4.72265625 C-7.69091958 6.79708072 -7.69091958 6.79708072 -9.3515625 10.09765625 C-9.96484375 8.265625 -9.96484375 8.265625 -10.3515625 6.09765625 C-7.25808824 1.51078062 -5.44882533 -0.0363255 0 0 Z " fill="#26353A" transform="translate(26.3515625,7.90234375)"/>
<path d="M0 0 C1.53202706 0.25195908 3.05257128 0.57596777 4.5625 0.9375 C5.38878906 1.13214844 6.21507813 1.32679687 7.06640625 1.52734375 C8.02353516 1.76130859 8.02353516 1.76130859 9 2 C8.67 2.99 8.34 3.98 8 5 C8 5.99 8 6.98 8 8 C7.4225 7.814375 6.845 7.62875 6.25 7.4375 C4.00967475 6.83231516 4.00967475 6.83231516 1.875 7.5625 C1.25625 7.706875 0.6375 7.85125 0 8 C-0.66 7.34 -1.32 6.68 -2 6 C-1.44444444 1.44444444 -1.44444444 1.44444444 0 0 Z " fill="#949898" transform="translate(101,73)"/>
<path d="M0 0 C1.98 0 3.96 0 6 0 C6.77842938 3.40562852 7.09978121 6.50765756 7 10 C5 10 5 10 3.375 8.5 C2.92125 8.005 2.4675 7.51 2 7 C2 7.99 2 8.98 2 10 C1.34 10 0.68 10 0 10 C0 6.7 0 3.4 0 0 Z " fill="#474F50" transform="translate(71,44)"/>
<path d="M0 0 C0.33 0.99 0.66 1.98 1 3 C1.66 3 2.32 3 3 3 C1.51364884 7.21654356 -0.61249159 10.62478605 -3.125 14.3125 C-3.84945312 15.38113281 -4.57390625 16.44976562 -5.3203125 17.55078125 C-6.15175781 18.76314453 -6.15175781 18.76314453 -7 20 C-7.99 19.67 -8.98 19.34 -10 19 C-9.36191406 17.96359375 -8.72382812 16.9271875 -8.06640625 15.859375 C-7.23149773 14.48974978 -6.39687736 13.11994887 -5.5625 11.75 C-5.14162109 11.06808594 -4.72074219 10.38617188 -4.28710938 9.68359375 C-3.68286133 8.68779297 -3.68286133 8.68779297 -3.06640625 7.671875 C-2.69459229 7.0644043 -2.32277832 6.45693359 -1.93969727 5.83105469 C-0.95116455 3.90484128 -0.44259935 2.11305496 0 0 Z " fill="#1CAAA7" transform="translate(47,27)"/>
<path d="M0 0 C0 1.98 0 3.96 0 6 C-3.05847848 6.54372951 -5.88772805 7 -9 7 C-9.33 5.35 -9.66 3.7 -10 2 C-2.28571429 0 -2.28571429 0 0 0 Z " fill="#7E8484" transform="translate(58,74)"/>
<path d="M0 0 C0.99 0.33 1.98 0.66 3 1 C3.94921875 3.06640625 3.94921875 3.06640625 4.6875 5.5625 C5.06455078 6.80193359 5.06455078 6.80193359 5.44921875 8.06640625 C5.63097656 8.70449219 5.81273438 9.34257813 6 10 C4.906875 9.835 3.81375 9.67 2.6875 9.5 C-0.87525873 8.93281816 -0.87525873 8.93281816 -4 9 C-2.68 6.03 -1.36 3.06 0 0 Z " fill="#293233" transform="translate(84,44)"/>
<path d="M0 0 C0.33 1.32 0.66 2.64 1 4 C1.66 4 2.32 4 3 4 C3 2.68 3 1.36 3 0 C5.97 0 8.94 0 12 0 C12.33 1.65 12.66 3.3 13 5 C12.67 4.01 12.34 3.02 12 2 C11.34 2 10.68 2 10 2 C9.67 2.99 9.34 3.98 9 5 C9 4.01 9 3.02 9 2 C8.34 2 7.68 2 7 2 C7 3.32 7 4.64 7 6 C5.00045254 6.04254356 2.99958364 6.04080783 1 6 C0 5 0 5 -0.0625 2.4375 C-0.041875 1.633125 -0.02125 0.82875 0 0 Z " fill="#797F7F" transform="translate(71,75)"/>
<path d="M0 0 C1.65 0 3.3 0 5 0 C5.33 0.99 5.66 1.98 6 3 C4.35 2.67 2.7 2.34 1 2 C1 2.66 1 3.32 1 4 C2.65 4.33 4.3 4.66 6 5 C5.67 6.65 5.34 8.3 5 10 C3.35 10 1.7 10 0 10 C-0.33 9.01 -0.66 8.02 -1 7 C1.475 7.495 1.475 7.495 4 8 C4 7.34 4 6.68 4 6 C2.35 5.67 0.7 5.34 -1 5 C-0.67 3.35 -0.34 1.7 0 0 Z " fill="#2D3636" transform="translate(135,44)"/>
<path d="M0 0 C1.2375 0.1546875 1.2375 0.1546875 2.5 0.3125 C3.16 1.3025 3.82 2.2925 4.5 3.3125 C2.52 3.3125 0.54 3.3125 -1.5 3.3125 C-1.5 4.9625 -1.5 6.6125 -1.5 8.3125 C-0.51 8.3125 0.48 8.3125 1.5 8.3125 C1.83 7.6525 2.16 6.9925 2.5 6.3125 C1.84 5.9825 1.18 5.6525 0.5 5.3125 C1.82 5.3125 3.14 5.3125 4.5 5.3125 C3.625 9.1875 3.625 9.1875 2.5 10.3125 C0.0625 10.5 0.0625 10.5 -2.5 10.3125 C-4.5 8.3125 -4.5 8.3125 -4.75 5.3125 C-4.43541678 1.53750135 -3.81908518 0.47738565 0 0 Z " fill="#11191A" transform="translate(113.5,43.6875)"/>
<path d="M0 0 C0.66 0 1.32 0 2 0 C2 0.99 2 1.98 2 3 C2.99 3 3.98 3 5 3 C5 3.66 5 4.32 5 5 C-0.61 5 -6.22 5 -12 5 C-11.67 4.01 -11.34 3.02 -11 2 C-10.06027344 2.03480469 -10.06027344 2.03480469 -9.1015625 2.0703125 C-7.87566406 2.09738281 -7.87566406 2.09738281 -6.625 2.125 C-5.40683594 2.15980469 -5.40683594 2.15980469 -4.1640625 2.1953125 C-1.78657757 2.21370051 -1.78657757 2.21370051 0 0 Z " fill="#1C3131" transform="translate(35,45)"/>
<path d="M0 0 C2.31 0 4.62 0 7 0 C7 0.66 7 1.32 7 2 C5.35 2 3.7 2 2 2 C2 2.66 2 3.32 2 4 C3.32 4 4.64 4 6 4 C6 4.66 6 5.32 6 6 C4.68 6 3.36 6 2 6 C2 6.99 2 7.98 2 9 C3.65 9 5.3 9 7 9 C7 9.33 7 9.66 7 10 C4.69 10 2.38 10 0 10 C0 6.7 0 3.4 0 0 Z " fill="#252D2E" transform="translate(100,44)"/>
<path d="M0 0 C2.31 0 4.62 0 7 0 C7 0.66 7 1.32 7 2 C5.35 2 3.7 2 2 2 C2 2.66 2 3.32 2 4 C3.32 4 4.64 4 6 4 C6 4.66 6 5.32 6 6 C4.68 6 3.36 6 2 6 C2 6.99 2 7.98 2 9 C3.32 9.33 4.64 9.66 6 10 C4.02 10 2.04 10 0 10 C0 6.7 0 3.4 0 0 Z " fill="#252D2E" transform="translate(125,44)"/>
<path d="M0 0 C1.65 0 3.3 0 5 0 C5.33 0.99 5.66 1.98 6 3 C4.35 2.67 2.7 2.34 1 2 C1 2.66 1 3.32 1 4 C2.65 4.33 4.3 4.66 6 5 C5.67 6.65 5.34 8.3 5 10 C3.35 10 1.7 10 0 10 C0 9.01 0 8.02 0 7 C1.32 7.66 2.64 8.32 4 9 C4 8.01 4 7.02 4 6 C2.35 5.67 0.7 5.34 -1 5 C-0.67 3.35 -0.34 1.7 0 0 Z " fill="#262E30" transform="translate(53,44)"/>
<path d="M0 0 C0.66 0.99 1.32 1.98 2 3 C1.47599609 3.67095703 1.47599609 3.67095703 0.94140625 4.35546875 C-1.68898628 7.85023956 -3.59207142 10.51278557 -4 15 C-4.66 14.67 -5.32 14.34 -6 14 C-5.62257767 7.83543524 -3.84129692 4.82624485 0 0 Z " fill="#102C2F" transform="translate(15,16)"/>
<path d="M0 0 C2.00720923 0.28674418 4.0085944 0.61866701 6 1 C6 1.66 6 2.32 6 3 C5.01 3.495 5.01 3.495 4 4 C3.67 4.99 3.34 5.98 3 7 C1.68 6.67 0.36 6.34 -1 6 C-1.042721 4.33388095 -1.04063832 2.66617115 -1 1 C-0.67 0.67 -0.34 0.34 0 0 Z " fill="#D0D8D9" transform="translate(112,46)"/>
<path d="M0 0 C2.64 0 5.28 0 8 0 C8 0.66 8 1.32 8 2 C7.01 2 6.02 2 5 2 C5 4.64 5 7.28 5 10 C4.34 10 3.68 10 3 10 C3 7.36 3 4.72 3 2 C2.01 2 1.02 2 0 2 C0 1.34 0 0.68 0 0 Z " fill="#202729" transform="translate(90,44)"/>
<path d="M0 0 C2.64 0 5.28 0 8 0 C8 0.66 8 1.32 8 2 C7.01 2 6.02 2 5 2 C5 4.64 5 7.28 5 10 C4.34 10 3.68 10 3 10 C3 7.36 3 4.72 3 2 C2.01 2 1.02 2 0 2 C0 1.34 0 0.68 0 0 Z " fill="#263031" transform="translate(61,44)"/>
<path d="M0 0 C0.78375 0.04125 1.5675 0.0825 2.375 0.125 C2.375 1.775 2.375 3.425 2.375 5.125 C0.725 5.455 -0.925 5.785 -2.625 6.125 C-3.285 4.805 -3.945 3.485 -4.625 2.125 C-2.625 0.125 -2.625 0.125 0 0 Z " fill="#8D9393" transform="translate(30.625,74.875)"/>
<path d="M0 0 C2.31 0 4.62 0 7 0 C6.67 1.65 6.34 3.3 6 5 C4.68 4.34 3.36 3.68 2 3 C2.33 3.33 2.66 3.66 3 4 C3 4.66 3 5.32 3 6 C1.68 5.34 0.36 4.68 -1 4 C-0.67 2.68 -0.34 1.36 0 0 Z " fill="#6F7374" transform="translate(121,75)"/>
<path d="M0 0 C0.66 0.33 1.32 0.66 2 1 C1.62671065 6.35048061 0.0042343 8.50912907 -4 12 C-3.33501617 7.61110675 -1.81242323 4.0188515 0 0 Z " fill="#09262A" transform="translate(52,25)"/>
<path d="M0 0 C2.475 0.495 2.475 0.495 5 1 C4.67 2.32 4.34 3.64 4 5 C3.01 5 2.02 5 1 5 C0.67 5.66 0.34 6.32 0 7 C0 4.69 0 2.38 0 0 Z " fill="#6F7676" transform="translate(21,73)"/>
<path d="M0 0 C5.94 0.99 5.94 0.99 12 2 C11.67 2.66 11.34 3.32 11 4 C8.03 4 5.06 4 2 4 C1.34 2.68 0.68 1.36 0 0 Z " fill="#12A19F" transform="translate(22,44)"/>
<path d="M0 0 C0.2475 0.515625 0.495 1.03125 0.75 1.5625 C2.39581616 4.77184151 4.1976096 7.87585664 6 11 C5.01 11.33 4.02 11.66 3 12 C-1.06153846 5.72307692 -1.06153846 5.72307692 -0.75 2.0625 C-0.5025 1.381875 -0.255 0.70125 0 0 Z " fill="#153E43" transform="translate(11,26)"/>
<path d="M0 0 C2.31 0 4.62 0 7 0 C7 0.66 7 1.32 7 2 C6.38125 2.0825 5.7625 2.165 5.125 2.25 C2.81562433 2.81258459 2.81562433 2.81258459 1.75 5.0625 C1.5025 5.701875 1.255 6.34125 1 7 C0.67 4.69 0.34 2.38 0 0 Z " fill="#2B3638" transform="translate(91,8)"/>
<path d="M0 0 C0.33 0.66 0.66 1.32 1 2 C1.99 2 2.98 2 4 2 C4 1.34 4 0.68 4 0 C4.66 0 5.32 0 6 0 C6 1.98 6 3.96 6 6 C5.34 6 4.68 6 4 6 C4 5.34 4 4.68 4 4 C3.01 4 2.02 4 1 4 C0.67 4.66 0.34 5.32 0 6 C0 4.02 0 2.04 0 0 Z " fill="#5F6667" transform="translate(64,74)"/>
<path d="M0 0 C0.66 0.33 1.32 0.66 2 1 C0.55746343 4.36591866 -1.33264727 6.51047079 -4 9 C-3.46930939 5.17902761 -2.50298434 2.93828597 0 0 Z " fill="#15343A" transform="translate(20,9)"/>
<path d="M0 0 C1.2375 0.1546875 1.2375 0.1546875 2.5 0.3125 C3.16 1.3025 3.82 2.2925 4.5 3.3125 C2.52 3.3125 0.54 3.3125 -1.5 3.3125 C-2.16 4.6325 -2.82 5.9525 -3.5 7.3125 C-4.125 4.9375 -4.125 4.9375 -4.5 2.3125 C-2.5 0.3125 -2.5 0.3125 0 0 Z " fill="#3A4244" transform="translate(113.5,43.6875)"/>
<path d="M0 0 C0.99 0.33 1.98 0.66 3 1 C3.33 2.65 3.66 4.3 4 6 C2.02 6 0.04 6 -2 6 C-1.34 4.02 -0.68 2.04 0 0 Z " fill="#596364" transform="translate(11,74)"/>
<path d="M0 0 C0.99 0.33 1.98 0.66 3 1 C3 2.65 3 4.3 3 6 C1.68 5.67 0.36 5.34 -1 5 C-0.67 3.35 -0.34 1.7 0 0 Z " fill="#777B7C" transform="translate(86,75)"/>
<path d="M0 0 C0.66 0 1.32 0 2 0 C2 0.99 2 1.98 2 3 C2.99 3 3.98 3 5 3 C5.33 4.32 5.66 5.64 6 7 C3.69 6.34 1.38 5.68 -1 5 C-0.67 3.35 -0.34 1.7 0 0 Z " fill="#5C6464" transform="translate(84,47)"/>
<path d="M0 0 C0 0.66 0 1.32 0 2 C0.66 2 1.32 2 2 2 C2 2.99 2 3.98 2 5 C0.35 5 -1.3 5 -3 5 C-3.33 3.68 -3.66 2.36 -4 1 C-2 0 -2 0 0 0 Z " fill="#636C6B" transform="translate(36,75)"/>
<path d="M0 0 C0.66 0.33 1.32 0.66 2 1 C0.92598892 3.91517292 0.22189824 5.77810176 -2 8 C-2.66 7.34 -3.32 6.68 -4 6 C-2.68 4.02 -1.36 2.04 0 0 Z " fill="#003436" transform="translate(44,30)"/>
<path d="M0 0 C0.99 0 1.98 0 3 0 C2.67 1.65 2.34 3.3 2 5 C0.35 4.67 -1.3 4.34 -3 4 C-2.67 3.01 -2.34 2.02 -2 1 C-2 1.66 -2 2.32 -2 3 C-1.34 3 -0.68 3 0 3 C0 2.01 0 1.02 0 0 Z " fill="#989D9D" transform="translate(44,75)"/>
<path d="M0 0 C0.99 0.33 1.98 0.66 3 1 C2.67 2.65 2.34 4.3 2 6 C1.01 5.67 0.02 5.34 -1 5 C-0.67 3.35 -0.34 1.7 0 0 Z " fill="#6C7070" transform="translate(130,75)"/>
<path d="M0 0 C0 1.98 0 3.96 0 6 C-2 5 -2 5 -3 3 C-3 3.99 -3 4.98 -3 6 C-3.66 6 -4.32 6 -5 6 C-4.625 3.5625 -4.625 3.5625 -4 1 C-2 0 -2 0 0 0 Z " fill="#595D5E" transform="translate(139,74)"/>
<path d="M0 0 C0.66 0.33 1.32 0.66 2 1 C2 1.99 2 2.98 2 4 C0.35 4.33 -1.3 4.66 -3 5 C-2.01 3.35 -1.02 1.7 0 0 Z " fill="#051214" transform="translate(80,32)"/>
</svg>
